<mxfile host="app.diagrams.net" modified="2023-09-27T03:54:20.054Z" agent="Mozilla/5.0 (Windows NT 10.0; Win64; x64) AppleWebKit/537.36 (KHTML, like Gecko) Chrome/117.0.0.0 Safari/537.36" etag="J-jgvLpVrbMnSQUfMOB_" version="21.6.9" type="github">
  <diagram id="C5RBs43oDa-KdzZeNtuy" name="Page-1">
    <mxGraphModel dx="3379" dy="1165" grid="1" gridSize="10" guides="1" tooltips="1" connect="1" arrows="1" fold="1" page="1" pageScale="1" pageWidth="827" pageHeight="1169" math="0" shadow="0">
      <root>
        <mxCell id="WIyWlLk6GJQsqaUBKTNV-0" />
        <mxCell id="WIyWlLk6GJQsqaUBKTNV-1" parent="WIyWlLk6GJQsqaUBKTNV-0" />
        <mxCell id="GbgRb__HCXadz126l9WK-15" value="" style="rounded=1;whiteSpace=wrap;html=1;fillColor=#dae8fc;strokeColor=#6c8ebf;" parent="WIyWlLk6GJQsqaUBKTNV-1" vertex="1">
          <mxGeometry x="760" y="30" width="780" height="1050" as="geometry" />
        </mxCell>
        <mxCell id="GbgRb__HCXadz126l9WK-215" value="" style="rounded=0;whiteSpace=wrap;html=1;fillColor=#d5e8d4;strokeColor=#82b366;" parent="WIyWlLk6GJQsqaUBKTNV-1" vertex="1">
          <mxGeometry x="1312.5" y="723.5" width="175" height="315" as="geometry" />
        </mxCell>
        <mxCell id="GbgRb__HCXadz126l9WK-214" value="" style="rounded=0;whiteSpace=wrap;html=1;fillColor=#d5e8d4;strokeColor=#82b366;" parent="WIyWlLk6GJQsqaUBKTNV-1" vertex="1">
          <mxGeometry x="1312.5" y="392.5" width="175" height="315" as="geometry" />
        </mxCell>
        <mxCell id="GbgRb__HCXadz126l9WK-212" value="" style="rounded=0;whiteSpace=wrap;html=1;fillColor=#d5e8d4;strokeColor=#82b366;" parent="WIyWlLk6GJQsqaUBKTNV-1" vertex="1">
          <mxGeometry x="1315" y="67" width="175" height="315" as="geometry" />
        </mxCell>
        <mxCell id="GbgRb__HCXadz126l9WK-38" style="edgeStyle=orthogonalEdgeStyle;rounded=0;orthogonalLoop=1;jettySize=auto;html=1;entryX=0;entryY=0.5;entryDx=0;entryDy=0;" parent="WIyWlLk6GJQsqaUBKTNV-1" source="GbgRb__HCXadz126l9WK-34" target="GbgRb__HCXadz126l9WK-15" edge="1">
          <mxGeometry relative="1" as="geometry" />
        </mxCell>
        <mxCell id="GbgRb__HCXadz126l9WK-34" value="" style="rounded=0;whiteSpace=wrap;html=1;fillColor=#d5e8d4;strokeColor=#82b366;" parent="WIyWlLk6GJQsqaUBKTNV-1" vertex="1">
          <mxGeometry x="310" y="90" width="190" height="290" as="geometry" />
        </mxCell>
        <mxCell id="GbgRb__HCXadz126l9WK-39" style="edgeStyle=orthogonalEdgeStyle;rounded=0;orthogonalLoop=1;jettySize=auto;html=1;exitX=1;exitY=0.5;exitDx=0;exitDy=0;" parent="WIyWlLk6GJQsqaUBKTNV-1" source="GbgRb__HCXadz126l9WK-1" target="GbgRb__HCXadz126l9WK-28" edge="1">
          <mxGeometry relative="1" as="geometry" />
        </mxCell>
        <mxCell id="GbgRb__HCXadz126l9WK-40" style="edgeStyle=orthogonalEdgeStyle;rounded=0;orthogonalLoop=1;jettySize=auto;html=1;exitX=1;exitY=0.5;exitDx=0;exitDy=0;" parent="WIyWlLk6GJQsqaUBKTNV-1" source="GbgRb__HCXadz126l9WK-1" target="GbgRb__HCXadz126l9WK-29" edge="1">
          <mxGeometry relative="1" as="geometry" />
        </mxCell>
        <mxCell id="GbgRb__HCXadz126l9WK-41" style="edgeStyle=orthogonalEdgeStyle;rounded=0;orthogonalLoop=1;jettySize=auto;html=1;exitX=1;exitY=0.5;exitDx=0;exitDy=0;" parent="WIyWlLk6GJQsqaUBKTNV-1" source="GbgRb__HCXadz126l9WK-1" target="GbgRb__HCXadz126l9WK-30" edge="1">
          <mxGeometry relative="1" as="geometry" />
        </mxCell>
        <mxCell id="GbgRb__HCXadz126l9WK-42" style="edgeStyle=orthogonalEdgeStyle;rounded=0;orthogonalLoop=1;jettySize=auto;html=1;exitX=1;exitY=0.5;exitDx=0;exitDy=0;entryX=0;entryY=0.5;entryDx=0;entryDy=0;" parent="WIyWlLk6GJQsqaUBKTNV-1" source="GbgRb__HCXadz126l9WK-1" target="GbgRb__HCXadz126l9WK-31" edge="1">
          <mxGeometry relative="1" as="geometry" />
        </mxCell>
        <mxCell id="GbgRb__HCXadz126l9WK-43" style="edgeStyle=orthogonalEdgeStyle;rounded=0;orthogonalLoop=1;jettySize=auto;html=1;exitX=1;exitY=0.5;exitDx=0;exitDy=0;" parent="WIyWlLk6GJQsqaUBKTNV-1" source="GbgRb__HCXadz126l9WK-1" target="GbgRb__HCXadz126l9WK-33" edge="1">
          <mxGeometry relative="1" as="geometry" />
        </mxCell>
        <mxCell id="GbgRb__HCXadz126l9WK-44" style="edgeStyle=orthogonalEdgeStyle;rounded=0;orthogonalLoop=1;jettySize=auto;html=1;exitX=1;exitY=0.5;exitDx=0;exitDy=0;entryX=0;entryY=0.5;entryDx=0;entryDy=0;" parent="WIyWlLk6GJQsqaUBKTNV-1" source="GbgRb__HCXadz126l9WK-1" target="GbgRb__HCXadz126l9WK-32" edge="1">
          <mxGeometry relative="1" as="geometry" />
        </mxCell>
        <mxCell id="GbgRb__HCXadz126l9WK-187" style="edgeStyle=orthogonalEdgeStyle;rounded=0;orthogonalLoop=1;jettySize=auto;html=1;entryX=0.5;entryY=0;entryDx=0;entryDy=0;" parent="WIyWlLk6GJQsqaUBKTNV-1" source="GbgRb__HCXadz126l9WK-1" target="GbgRb__HCXadz126l9WK-161" edge="1">
          <mxGeometry relative="1" as="geometry">
            <Array as="points">
              <mxPoint x="80" y="360" />
              <mxPoint x="264" y="360" />
            </Array>
          </mxGeometry>
        </mxCell>
        <mxCell id="GbgRb__HCXadz126l9WK-219" style="edgeStyle=orthogonalEdgeStyle;rounded=0;orthogonalLoop=1;jettySize=auto;html=1;entryX=0.5;entryY=0;entryDx=0;entryDy=0;" parent="WIyWlLk6GJQsqaUBKTNV-1" source="GbgRb__HCXadz126l9WK-1" target="GbgRb__HCXadz126l9WK-151" edge="1">
          <mxGeometry relative="1" as="geometry" />
        </mxCell>
        <mxCell id="GbgRb__HCXadz126l9WK-1" value="" style="rounded=1;whiteSpace=wrap;html=1;fillColor=#dae8fc;strokeColor=#6c8ebf;" parent="WIyWlLk6GJQsqaUBKTNV-1" vertex="1">
          <mxGeometry x="-80" y="120" width="320" height="170" as="geometry" />
        </mxCell>
        <mxCell id="WIyWlLk6GJQsqaUBKTNV-3" value="综合自动化" style="rounded=1;whiteSpace=wrap;html=1;fontSize=12;glass=0;strokeWidth=1;shadow=0;" parent="WIyWlLk6GJQsqaUBKTNV-1" vertex="1">
          <mxGeometry x="-50" y="170" width="120" height="40" as="geometry" />
        </mxCell>
        <mxCell id="GbgRb__HCXadz126l9WK-0" value="安全监测" style="rounded=1;whiteSpace=wrap;html=1;fontSize=12;glass=0;strokeWidth=1;shadow=0;" parent="WIyWlLk6GJQsqaUBKTNV-1" vertex="1">
          <mxGeometry x="90" y="170" width="120" height="40" as="geometry" />
        </mxCell>
        <mxCell id="GbgRb__HCXadz126l9WK-2" value="经营管控" style="rounded=1;whiteSpace=wrap;html=1;fontSize=12;glass=0;strokeWidth=1;shadow=0;" parent="WIyWlLk6GJQsqaUBKTNV-1" vertex="1">
          <mxGeometry x="-50" y="230" width="120" height="40" as="geometry" />
        </mxCell>
        <mxCell id="GbgRb__HCXadz126l9WK-3" value="分析决策" style="rounded=1;whiteSpace=wrap;html=1;fontSize=12;glass=0;strokeWidth=1;shadow=0;" parent="WIyWlLk6GJQsqaUBKTNV-1" vertex="1">
          <mxGeometry x="90" y="230" width="120" height="40" as="geometry" />
        </mxCell>
        <mxCell id="GbgRb__HCXadz126l9WK-8" value="&lt;b&gt;综合管控&lt;/b&gt;" style="text;html=1;strokeColor=none;fillColor=none;align=center;verticalAlign=middle;whiteSpace=wrap;rounded=0;strokeWidth=1;" parent="WIyWlLk6GJQsqaUBKTNV-1" vertex="1">
          <mxGeometry x="-70" y="120" width="300" height="30" as="geometry" />
        </mxCell>
        <mxCell id="b43Vw5kl2ElNZJK6GDsK-1" style="edgeStyle=orthogonalEdgeStyle;rounded=0;orthogonalLoop=1;jettySize=auto;html=1;entryX=1.019;entryY=0.466;entryDx=0;entryDy=0;entryPerimeter=0;" edge="1" parent="WIyWlLk6GJQsqaUBKTNV-1" source="GbgRb__HCXadz126l9WK-9" target="GbgRb__HCXadz126l9WK-81">
          <mxGeometry relative="1" as="geometry" />
        </mxCell>
        <mxCell id="GbgRb__HCXadz126l9WK-9" value="" style="rounded=1;whiteSpace=wrap;html=1;fillColor=#dae8fc;strokeColor=#6c8ebf;" parent="WIyWlLk6GJQsqaUBKTNV-1" vertex="1">
          <mxGeometry x="979.94" y="1210" width="340" height="280" as="geometry" />
        </mxCell>
        <mxCell id="GbgRb__HCXadz126l9WK-10" value="风险分级管理" style="rounded=1;whiteSpace=wrap;html=1;fontSize=12;glass=0;strokeWidth=1;shadow=0;" parent="WIyWlLk6GJQsqaUBKTNV-1" vertex="1">
          <mxGeometry x="1014.94" y="1290" width="120" height="40" as="geometry" />
        </mxCell>
        <mxCell id="GbgRb__HCXadz126l9WK-11" value="隐患排查治理" style="rounded=1;whiteSpace=wrap;html=1;fontSize=12;glass=0;strokeWidth=1;shadow=0;" parent="WIyWlLk6GJQsqaUBKTNV-1" vertex="1">
          <mxGeometry x="1154.94" y="1290" width="120" height="40" as="geometry" />
        </mxCell>
        <mxCell id="GbgRb__HCXadz126l9WK-12" value="不规范行为管理" style="rounded=1;whiteSpace=wrap;html=1;fontSize=12;glass=0;strokeWidth=1;shadow=0;" parent="WIyWlLk6GJQsqaUBKTNV-1" vertex="1">
          <mxGeometry x="1154.94" y="1355" width="120" height="40" as="geometry" />
        </mxCell>
        <mxCell id="GbgRb__HCXadz126l9WK-13" value="安全绩效考核" style="rounded=1;whiteSpace=wrap;html=1;fontSize=12;glass=0;strokeWidth=1;shadow=0;" parent="WIyWlLk6GJQsqaUBKTNV-1" vertex="1">
          <mxGeometry x="1014.94" y="1355" width="120" height="40" as="geometry" />
        </mxCell>
        <mxCell id="GbgRb__HCXadz126l9WK-14" value="&lt;b&gt;双预控系统&lt;/b&gt;" style="text;html=1;strokeColor=none;fillColor=none;align=center;verticalAlign=middle;whiteSpace=wrap;rounded=0;strokeWidth=1;" parent="WIyWlLk6GJQsqaUBKTNV-1" vertex="1">
          <mxGeometry x="984.94" y="1220" width="320" height="30" as="geometry" />
        </mxCell>
        <mxCell id="GbgRb__HCXadz126l9WK-197" style="edgeStyle=orthogonalEdgeStyle;rounded=0;orthogonalLoop=1;jettySize=auto;html=1;entryX=0.5;entryY=0;entryDx=0;entryDy=0;" parent="WIyWlLk6GJQsqaUBKTNV-1" source="GbgRb__HCXadz126l9WK-15" target="GbgRb__HCXadz126l9WK-9" edge="1">
          <mxGeometry relative="1" as="geometry" />
        </mxCell>
        <mxCell id="GbgRb__HCXadz126l9WK-16" value="分析单元" style="rounded=1;whiteSpace=wrap;html=1;fontSize=12;glass=0;strokeWidth=1;shadow=0;fillColor=#e1d5e7;strokeColor=#9673a6;" parent="WIyWlLk6GJQsqaUBKTNV-1" vertex="1">
          <mxGeometry x="1340" y="87" width="120" height="20" as="geometry" />
        </mxCell>
        <mxCell id="GbgRb__HCXadz126l9WK-213" style="edgeStyle=orthogonalEdgeStyle;rounded=0;orthogonalLoop=1;jettySize=auto;html=1;entryX=0;entryY=0.5;entryDx=0;entryDy=0;" parent="WIyWlLk6GJQsqaUBKTNV-1" source="GbgRb__HCXadz126l9WK-17" target="GbgRb__HCXadz126l9WK-212" edge="1">
          <mxGeometry relative="1" as="geometry" />
        </mxCell>
        <mxCell id="GbgRb__HCXadz126l9WK-17" value="风险训练" style="rounded=1;whiteSpace=wrap;html=1;fontSize=12;glass=0;strokeWidth=1;shadow=0;fillColor=#fff2cc;strokeColor=#d6b656;" parent="WIyWlLk6GJQsqaUBKTNV-1" vertex="1">
          <mxGeometry x="1075" y="205" width="120" height="40" as="geometry" />
        </mxCell>
        <mxCell id="GbgRb__HCXadz126l9WK-208" style="edgeStyle=orthogonalEdgeStyle;rounded=0;orthogonalLoop=1;jettySize=auto;html=1;entryX=0;entryY=0.5;entryDx=0;entryDy=0;" parent="WIyWlLk6GJQsqaUBKTNV-1" edge="1">
          <mxGeometry relative="1" as="geometry">
            <mxPoint x="904" y="542.5294117647059" as="sourcePoint" />
            <mxPoint x="1079" y="225" as="targetPoint" />
            <Array as="points">
              <mxPoint x="994" y="543" />
              <mxPoint x="994" y="225" />
            </Array>
          </mxGeometry>
        </mxCell>
        <mxCell id="GbgRb__HCXadz126l9WK-209" style="edgeStyle=orthogonalEdgeStyle;rounded=0;orthogonalLoop=1;jettySize=auto;html=1;entryX=0;entryY=0.5;entryDx=0;entryDy=0;" parent="WIyWlLk6GJQsqaUBKTNV-1" source="GbgRb__HCXadz126l9WK-18" target="GbgRb__HCXadz126l9WK-46" edge="1">
          <mxGeometry relative="1" as="geometry" />
        </mxCell>
        <mxCell id="GbgRb__HCXadz126l9WK-210" style="edgeStyle=orthogonalEdgeStyle;rounded=0;orthogonalLoop=1;jettySize=auto;html=1;entryX=0;entryY=0.5;entryDx=0;entryDy=0;" parent="WIyWlLk6GJQsqaUBKTNV-1" source="GbgRb__HCXadz126l9WK-18" target="GbgRb__HCXadz126l9WK-19" edge="1">
          <mxGeometry relative="1" as="geometry" />
        </mxCell>
        <mxCell id="GbgRb__HCXadz126l9WK-18" value="数据训练" style="rounded=1;whiteSpace=wrap;html=1;fontSize=12;glass=0;strokeWidth=1;shadow=0;fillColor=#ffe6cc;strokeColor=#d79b00;" parent="WIyWlLk6GJQsqaUBKTNV-1" vertex="1">
          <mxGeometry x="780" y="522.5" width="120" height="40" as="geometry" />
        </mxCell>
        <mxCell id="GbgRb__HCXadz126l9WK-217" style="edgeStyle=orthogonalEdgeStyle;rounded=0;orthogonalLoop=1;jettySize=auto;html=1;entryX=0;entryY=0.5;entryDx=0;entryDy=0;" parent="WIyWlLk6GJQsqaUBKTNV-1" source="GbgRb__HCXadz126l9WK-19" target="GbgRb__HCXadz126l9WK-215" edge="1">
          <mxGeometry relative="1" as="geometry" />
        </mxCell>
        <mxCell id="GbgRb__HCXadz126l9WK-19" value="不规范行为训练" style="rounded=1;whiteSpace=wrap;html=1;fontSize=12;glass=0;strokeWidth=1;shadow=0;fillColor=#fff2cc;strokeColor=#d6b656;" parent="WIyWlLk6GJQsqaUBKTNV-1" vertex="1">
          <mxGeometry x="1090" y="860" width="120" height="40" as="geometry" />
        </mxCell>
        <mxCell id="GbgRb__HCXadz126l9WK-20" value="&lt;b&gt;大模型训练&lt;/b&gt;" style="text;html=1;strokeColor=none;fillColor=none;align=center;verticalAlign=middle;whiteSpace=wrap;rounded=0;strokeWidth=1;" parent="WIyWlLk6GJQsqaUBKTNV-1" vertex="1">
          <mxGeometry x="770" y="65" width="740" height="30" as="geometry" />
        </mxCell>
        <mxCell id="GbgRb__HCXadz126l9WK-28" value="通风告警" style="text;html=1;strokeColor=none;fillColor=none;align=center;verticalAlign=middle;whiteSpace=wrap;rounded=0;" parent="WIyWlLk6GJQsqaUBKTNV-1" vertex="1">
          <mxGeometry x="340" y="120" width="120" height="30" as="geometry" />
        </mxCell>
        <mxCell id="GbgRb__HCXadz126l9WK-29" value="排水告警" style="text;html=1;strokeColor=none;fillColor=none;align=center;verticalAlign=middle;whiteSpace=wrap;rounded=0;" parent="WIyWlLk6GJQsqaUBKTNV-1" vertex="1">
          <mxGeometry x="340" y="160" width="120" height="30" as="geometry" />
        </mxCell>
        <mxCell id="GbgRb__HCXadz126l9WK-30" value="主运输告警" style="text;html=1;strokeColor=none;fillColor=none;align=center;verticalAlign=middle;whiteSpace=wrap;rounded=0;" parent="WIyWlLk6GJQsqaUBKTNV-1" vertex="1">
          <mxGeometry x="340" y="190" width="120" height="30" as="geometry" />
        </mxCell>
        <mxCell id="GbgRb__HCXadz126l9WK-31" value="辅助运输告警" style="text;html=1;strokeColor=none;fillColor=none;align=center;verticalAlign=middle;whiteSpace=wrap;rounded=0;" parent="WIyWlLk6GJQsqaUBKTNV-1" vertex="1">
          <mxGeometry x="340" y="230" width="120" height="30" as="geometry" />
        </mxCell>
        <mxCell id="GbgRb__HCXadz126l9WK-32" value="......" style="text;html=1;strokeColor=none;fillColor=none;align=center;verticalAlign=middle;whiteSpace=wrap;rounded=0;" parent="WIyWlLk6GJQsqaUBKTNV-1" vertex="1">
          <mxGeometry x="340" y="320" width="120" height="30" as="geometry" />
        </mxCell>
        <mxCell id="GbgRb__HCXadz126l9WK-33" value="安全监测告警" style="text;html=1;strokeColor=none;fillColor=none;align=center;verticalAlign=middle;whiteSpace=wrap;rounded=0;" parent="WIyWlLk6GJQsqaUBKTNV-1" vertex="1">
          <mxGeometry x="340" y="280" width="120" height="30" as="geometry" />
        </mxCell>
        <mxCell id="GbgRb__HCXadz126l9WK-216" style="edgeStyle=orthogonalEdgeStyle;rounded=0;orthogonalLoop=1;jettySize=auto;html=1;entryX=0.003;entryY=0.478;entryDx=0;entryDy=0;entryPerimeter=0;" parent="WIyWlLk6GJQsqaUBKTNV-1" source="GbgRb__HCXadz126l9WK-46" target="GbgRb__HCXadz126l9WK-214" edge="1">
          <mxGeometry relative="1" as="geometry" />
        </mxCell>
        <mxCell id="GbgRb__HCXadz126l9WK-46" value="隐患训练" style="rounded=1;whiteSpace=wrap;html=1;fontSize=12;glass=0;strokeWidth=1;shadow=0;fillColor=#fff2cc;strokeColor=#d6b656;" parent="WIyWlLk6GJQsqaUBKTNV-1" vertex="1">
          <mxGeometry x="1084" y="523" width="120" height="40" as="geometry" />
        </mxCell>
        <mxCell id="GbgRb__HCXadz126l9WK-49" value="安全风险事件" style="rounded=1;whiteSpace=wrap;html=1;fontSize=12;glass=0;strokeWidth=1;shadow=0;fillColor=#e1d5e7;strokeColor=#9673a6;" parent="WIyWlLk6GJQsqaUBKTNV-1" vertex="1">
          <mxGeometry x="1340" y="117" width="120" height="20" as="geometry" />
        </mxCell>
        <mxCell id="GbgRb__HCXadz126l9WK-50" value="可能性" style="rounded=1;whiteSpace=wrap;html=1;fontSize=12;glass=0;strokeWidth=1;shadow=0;fillColor=#e1d5e7;strokeColor=#9673a6;" parent="WIyWlLk6GJQsqaUBKTNV-1" vertex="1">
          <mxGeometry x="1340" y="152" width="120" height="20" as="geometry" />
        </mxCell>
        <mxCell id="GbgRb__HCXadz126l9WK-51" value="暴露程度" style="rounded=1;whiteSpace=wrap;html=1;fontSize=12;glass=0;strokeWidth=1;shadow=0;fillColor=#e1d5e7;strokeColor=#9673a6;" parent="WIyWlLk6GJQsqaUBKTNV-1" vertex="1">
          <mxGeometry x="1340" y="182" width="120" height="20" as="geometry" />
        </mxCell>
        <mxCell id="GbgRb__HCXadz126l9WK-52" value="损失" style="rounded=1;whiteSpace=wrap;html=1;fontSize=12;glass=0;strokeWidth=1;shadow=0;fillColor=#e1d5e7;strokeColor=#9673a6;" parent="WIyWlLk6GJQsqaUBKTNV-1" vertex="1">
          <mxGeometry x="1340" y="217" width="120" height="20" as="geometry" />
        </mxCell>
        <mxCell id="GbgRb__HCXadz126l9WK-53" value="风险值" style="rounded=1;whiteSpace=wrap;html=1;fontSize=12;glass=0;strokeWidth=1;shadow=0;fillColor=#e1d5e7;strokeColor=#9673a6;" parent="WIyWlLk6GJQsqaUBKTNV-1" vertex="1">
          <mxGeometry x="1340" y="247" width="120" height="20" as="geometry" />
        </mxCell>
        <mxCell id="GbgRb__HCXadz126l9WK-54" value="风险等级" style="rounded=1;whiteSpace=wrap;html=1;fontSize=12;glass=0;strokeWidth=1;shadow=0;fillColor=#e1d5e7;strokeColor=#9673a6;" parent="WIyWlLk6GJQsqaUBKTNV-1" vertex="1">
          <mxGeometry x="1340" y="282" width="120" height="20" as="geometry" />
        </mxCell>
        <mxCell id="GbgRb__HCXadz126l9WK-55" value="管控层级" style="rounded=1;whiteSpace=wrap;html=1;fontSize=12;glass=0;strokeWidth=1;shadow=0;fillColor=#e1d5e7;strokeColor=#9673a6;" parent="WIyWlLk6GJQsqaUBKTNV-1" vertex="1">
          <mxGeometry x="1340" y="312" width="120" height="20" as="geometry" />
        </mxCell>
        <mxCell id="GbgRb__HCXadz126l9WK-56" value="风险类型" style="rounded=1;whiteSpace=wrap;html=1;fontSize=12;glass=0;strokeWidth=1;shadow=0;fillColor=#e1d5e7;strokeColor=#9673a6;" parent="WIyWlLk6GJQsqaUBKTNV-1" vertex="1">
          <mxGeometry x="1340" y="347" width="120" height="20" as="geometry" />
        </mxCell>
        <mxCell id="GbgRb__HCXadz126l9WK-58" value="班次" style="rounded=1;whiteSpace=wrap;html=1;fontSize=12;glass=0;strokeWidth=1;shadow=0;fillColor=#e1d5e7;strokeColor=#9673a6;" parent="WIyWlLk6GJQsqaUBKTNV-1" vertex="1">
          <mxGeometry x="1340" y="408" width="120" height="20" as="geometry" />
        </mxCell>
        <mxCell id="GbgRb__HCXadz126l9WK-59" value="分析对象" style="rounded=1;whiteSpace=wrap;html=1;fontSize=12;glass=0;strokeWidth=1;shadow=0;fillColor=#e1d5e7;strokeColor=#9673a6;" parent="WIyWlLk6GJQsqaUBKTNV-1" vertex="1">
          <mxGeometry x="1340" y="438" width="120" height="20" as="geometry" />
        </mxCell>
        <mxCell id="GbgRb__HCXadz126l9WK-60" value="分析单元" style="rounded=1;whiteSpace=wrap;html=1;fontSize=12;glass=0;strokeWidth=1;shadow=0;fillColor=#e1d5e7;strokeColor=#9673a6;" parent="WIyWlLk6GJQsqaUBKTNV-1" vertex="1">
          <mxGeometry x="1340" y="473" width="120" height="20" as="geometry" />
        </mxCell>
        <mxCell id="GbgRb__HCXadz126l9WK-61" value="责任单位" style="rounded=1;whiteSpace=wrap;html=1;fontSize=12;glass=0;strokeWidth=1;shadow=0;fillColor=#e1d5e7;strokeColor=#9673a6;" parent="WIyWlLk6GJQsqaUBKTNV-1" vertex="1">
          <mxGeometry x="1340" y="503" width="120" height="20" as="geometry" />
        </mxCell>
        <mxCell id="GbgRb__HCXadz126l9WK-62" value="责任人" style="rounded=1;whiteSpace=wrap;html=1;fontSize=12;glass=0;strokeWidth=1;shadow=0;fillColor=#e1d5e7;strokeColor=#9673a6;" parent="WIyWlLk6GJQsqaUBKTNV-1" vertex="1">
          <mxGeometry x="1340" y="538" width="120" height="20" as="geometry" />
        </mxCell>
        <mxCell id="GbgRb__HCXadz126l9WK-63" value="隐患等级" style="rounded=1;whiteSpace=wrap;html=1;fontSize=12;glass=0;strokeWidth=1;shadow=0;fillColor=#e1d5e7;strokeColor=#9673a6;" parent="WIyWlLk6GJQsqaUBKTNV-1" vertex="1">
          <mxGeometry x="1340" y="568" width="120" height="20" as="geometry" />
        </mxCell>
        <mxCell id="GbgRb__HCXadz126l9WK-64" value="隐患类型" style="rounded=1;whiteSpace=wrap;html=1;fontSize=12;glass=0;strokeWidth=1;shadow=0;fillColor=#e1d5e7;strokeColor=#9673a6;" parent="WIyWlLk6GJQsqaUBKTNV-1" vertex="1">
          <mxGeometry x="1340" y="603" width="120" height="20" as="geometry" />
        </mxCell>
        <mxCell id="GbgRb__HCXadz126l9WK-65" value="隐患专业" style="rounded=1;whiteSpace=wrap;html=1;fontSize=12;glass=0;strokeWidth=1;shadow=0;fillColor=#e1d5e7;strokeColor=#9673a6;" parent="WIyWlLk6GJQsqaUBKTNV-1" vertex="1">
          <mxGeometry x="1340" y="633" width="120" height="20" as="geometry" />
        </mxCell>
        <mxCell id="GbgRb__HCXadz126l9WK-66" value="风险类型" style="rounded=1;whiteSpace=wrap;html=1;fontSize=12;glass=0;strokeWidth=1;shadow=0;fillColor=#e1d5e7;strokeColor=#9673a6;" parent="WIyWlLk6GJQsqaUBKTNV-1" vertex="1">
          <mxGeometry x="1340" y="668" width="120" height="20" as="geometry" />
        </mxCell>
        <mxCell id="GbgRb__HCXadz126l9WK-67" value="班次" style="rounded=1;whiteSpace=wrap;html=1;fontSize=12;glass=0;strokeWidth=1;shadow=0;fillColor=#e1d5e7;strokeColor=#9673a6;" parent="WIyWlLk6GJQsqaUBKTNV-1" vertex="1">
          <mxGeometry x="1340" y="741" width="120" height="20" as="geometry" />
        </mxCell>
        <mxCell id="GbgRb__HCXadz126l9WK-68" value="违章地点" style="rounded=1;whiteSpace=wrap;html=1;fontSize=12;glass=0;strokeWidth=1;shadow=0;fillColor=#e1d5e7;strokeColor=#9673a6;" parent="WIyWlLk6GJQsqaUBKTNV-1" vertex="1">
          <mxGeometry x="1340" y="771" width="120" height="20" as="geometry" />
        </mxCell>
        <mxCell id="GbgRb__HCXadz126l9WK-69" value="违章单位" style="rounded=1;whiteSpace=wrap;html=1;fontSize=12;glass=0;strokeWidth=1;shadow=0;fillColor=#e1d5e7;strokeColor=#9673a6;" parent="WIyWlLk6GJQsqaUBKTNV-1" vertex="1">
          <mxGeometry x="1340" y="806" width="120" height="20" as="geometry" />
        </mxCell>
        <mxCell id="GbgRb__HCXadz126l9WK-70" value="违章人员" style="rounded=1;whiteSpace=wrap;html=1;fontSize=12;glass=0;strokeWidth=1;shadow=0;fillColor=#e1d5e7;strokeColor=#9673a6;" parent="WIyWlLk6GJQsqaUBKTNV-1" vertex="1">
          <mxGeometry x="1340" y="836" width="120" height="20" as="geometry" />
        </mxCell>
        <mxCell id="GbgRb__HCXadz126l9WK-71" value="不安全行为等级" style="rounded=1;whiteSpace=wrap;html=1;fontSize=12;glass=0;strokeWidth=1;shadow=0;fillColor=#e1d5e7;strokeColor=#9673a6;" parent="WIyWlLk6GJQsqaUBKTNV-1" vertex="1">
          <mxGeometry x="1340" y="871" width="120" height="20" as="geometry" />
        </mxCell>
        <mxCell id="GbgRb__HCXadz126l9WK-72" value="不安全行为类别" style="rounded=1;whiteSpace=wrap;html=1;fontSize=12;glass=0;strokeWidth=1;shadow=0;fillColor=#e1d5e7;strokeColor=#9673a6;" parent="WIyWlLk6GJQsqaUBKTNV-1" vertex="1">
          <mxGeometry x="1340" y="901" width="120" height="20" as="geometry" />
        </mxCell>
        <mxCell id="GbgRb__HCXadz126l9WK-73" value="罚款金额" style="rounded=1;whiteSpace=wrap;html=1;fontSize=12;glass=0;strokeWidth=1;shadow=0;fillColor=#e1d5e7;strokeColor=#9673a6;" parent="WIyWlLk6GJQsqaUBKTNV-1" vertex="1">
          <mxGeometry x="1340" y="936" width="120" height="20" as="geometry" />
        </mxCell>
        <mxCell id="GbgRb__HCXadz126l9WK-74" value="查处单位" style="rounded=1;whiteSpace=wrap;html=1;fontSize=12;glass=0;strokeWidth=1;shadow=0;fillColor=#e1d5e7;strokeColor=#9673a6;" parent="WIyWlLk6GJQsqaUBKTNV-1" vertex="1">
          <mxGeometry x="1340" y="966" width="120" height="20" as="geometry" />
        </mxCell>
        <mxCell id="GbgRb__HCXadz126l9WK-75" value="风险类型" style="rounded=1;whiteSpace=wrap;html=1;fontSize=12;glass=0;strokeWidth=1;shadow=0;fillColor=#e1d5e7;strokeColor=#9673a6;" parent="WIyWlLk6GJQsqaUBKTNV-1" vertex="1">
          <mxGeometry x="1340" y="1001" width="120" height="20" as="geometry" />
        </mxCell>
        <mxCell id="GbgRb__HCXadz126l9WK-80" value="......" style="rounded=1;whiteSpace=wrap;html=1;fontSize=12;glass=0;strokeWidth=1;shadow=0;" parent="WIyWlLk6GJQsqaUBKTNV-1" vertex="1">
          <mxGeometry x="1014.94" y="1420" width="120" height="40" as="geometry" />
        </mxCell>
        <mxCell id="GbgRb__HCXadz126l9WK-200" style="edgeStyle=orthogonalEdgeStyle;rounded=0;orthogonalLoop=1;jettySize=auto;html=1;entryX=0.5;entryY=0;entryDx=0;entryDy=0;" parent="WIyWlLk6GJQsqaUBKTNV-1" source="GbgRb__HCXadz126l9WK-81" target="GbgRb__HCXadz126l9WK-107" edge="1">
          <mxGeometry relative="1" as="geometry" />
        </mxCell>
        <mxCell id="GbgRb__HCXadz126l9WK-81" value="" style="rounded=1;whiteSpace=wrap;html=1;fillColor=#dae8fc;strokeColor=#6c8ebf;" parent="WIyWlLk6GJQsqaUBKTNV-1" vertex="1">
          <mxGeometry x="269.86" y="1169" width="340" height="390" as="geometry" />
        </mxCell>
        <mxCell id="GbgRb__HCXadz126l9WK-82" value="年度风险排查" style="rounded=1;whiteSpace=wrap;html=1;fontSize=12;glass=0;strokeWidth=1;shadow=0;" parent="WIyWlLk6GJQsqaUBKTNV-1" vertex="1">
          <mxGeometry x="299.86" y="1219" width="120" height="40" as="geometry" />
        </mxCell>
        <mxCell id="GbgRb__HCXadz126l9WK-83" value="专项风险排查" style="rounded=1;whiteSpace=wrap;html=1;fontSize=12;glass=0;strokeWidth=1;shadow=0;" parent="WIyWlLk6GJQsqaUBKTNV-1" vertex="1">
          <mxGeometry x="439.86" y="1219" width="120" height="40" as="geometry" />
        </mxCell>
        <mxCell id="GbgRb__HCXadz126l9WK-84" value="其他风险排查" style="rounded=1;whiteSpace=wrap;html=1;fontSize=12;glass=0;strokeWidth=1;shadow=0;" parent="WIyWlLk6GJQsqaUBKTNV-1" vertex="1">
          <mxGeometry x="299.86" y="1279" width="120" height="40" as="geometry" />
        </mxCell>
        <mxCell id="GbgRb__HCXadz126l9WK-85" value="日常排查" style="rounded=1;whiteSpace=wrap;html=1;fontSize=12;glass=0;strokeWidth=1;shadow=0;" parent="WIyWlLk6GJQsqaUBKTNV-1" vertex="1">
          <mxGeometry x="300" y="1359" width="120" height="40" as="geometry" />
        </mxCell>
        <mxCell id="GbgRb__HCXadz126l9WK-87" value="综合性排查" style="rounded=1;whiteSpace=wrap;html=1;fontSize=12;glass=0;strokeWidth=1;shadow=0;" parent="WIyWlLk6GJQsqaUBKTNV-1" vertex="1">
          <mxGeometry x="449.86" y="1359" width="120" height="40" as="geometry" />
        </mxCell>
        <mxCell id="GbgRb__HCXadz126l9WK-89" value="专业性排查" style="rounded=1;whiteSpace=wrap;html=1;fontSize=12;glass=0;strokeWidth=1;shadow=0;" parent="WIyWlLk6GJQsqaUBKTNV-1" vertex="1">
          <mxGeometry x="300" y="1419" width="120" height="40" as="geometry" />
        </mxCell>
        <mxCell id="GbgRb__HCXadz126l9WK-90" value="季节性排查" style="rounded=1;whiteSpace=wrap;html=1;fontSize=12;glass=0;strokeWidth=1;shadow=0;" parent="WIyWlLk6GJQsqaUBKTNV-1" vertex="1">
          <mxGeometry x="450" y="1419" width="120" height="40" as="geometry" />
        </mxCell>
        <mxCell id="GbgRb__HCXadz126l9WK-91" value="......" style="rounded=1;whiteSpace=wrap;html=1;fontSize=12;glass=0;strokeWidth=1;shadow=0;" parent="WIyWlLk6GJQsqaUBKTNV-1" vertex="1">
          <mxGeometry x="299.86" y="1479" width="120" height="40" as="geometry" />
        </mxCell>
        <mxCell id="GbgRb__HCXadz126l9WK-123" style="edgeStyle=orthogonalEdgeStyle;rounded=0;orthogonalLoop=1;jettySize=auto;html=1;entryX=0.5;entryY=0;entryDx=0;entryDy=0;" parent="WIyWlLk6GJQsqaUBKTNV-1" source="GbgRb__HCXadz126l9WK-107" target="GbgRb__HCXadz126l9WK-118" edge="1">
          <mxGeometry relative="1" as="geometry" />
        </mxCell>
        <mxCell id="GbgRb__HCXadz126l9WK-107" value="信息安检部处理" style="rhombus;whiteSpace=wrap;html=1;" parent="WIyWlLk6GJQsqaUBKTNV-1" vertex="1">
          <mxGeometry x="379.86" y="1648" width="120" height="120" as="geometry" />
        </mxCell>
        <mxCell id="GbgRb__HCXadz126l9WK-201" style="edgeStyle=orthogonalEdgeStyle;rounded=0;orthogonalLoop=1;jettySize=auto;html=1;entryX=0.5;entryY=0;entryDx=0;entryDy=0;" parent="WIyWlLk6GJQsqaUBKTNV-1" source="GbgRb__HCXadz126l9WK-118" target="GbgRb__HCXadz126l9WK-124" edge="1">
          <mxGeometry relative="1" as="geometry" />
        </mxCell>
        <mxCell id="GbgRb__HCXadz126l9WK-202" value="否" style="edgeLabel;html=1;align=center;verticalAlign=middle;resizable=0;points=[];" parent="GbgRb__HCXadz126l9WK-201" vertex="1" connectable="0">
          <mxGeometry x="-0.6744" y="2" relative="1" as="geometry">
            <mxPoint as="offset" />
          </mxGeometry>
        </mxCell>
        <mxCell id="GbgRb__HCXadz126l9WK-203" style="edgeStyle=orthogonalEdgeStyle;rounded=0;orthogonalLoop=1;jettySize=auto;html=1;entryX=0.5;entryY=0;entryDx=0;entryDy=0;" parent="WIyWlLk6GJQsqaUBKTNV-1" source="GbgRb__HCXadz126l9WK-118" target="GbgRb__HCXadz126l9WK-133" edge="1">
          <mxGeometry relative="1" as="geometry" />
        </mxCell>
        <mxCell id="GbgRb__HCXadz126l9WK-204" value="是" style="edgeLabel;html=1;align=center;verticalAlign=middle;resizable=0;points=[];" parent="GbgRb__HCXadz126l9WK-203" vertex="1" connectable="0">
          <mxGeometry x="-0.6705" y="-3" relative="1" as="geometry">
            <mxPoint as="offset" />
          </mxGeometry>
        </mxCell>
        <mxCell id="GbgRb__HCXadz126l9WK-118" value="限期处理" style="rhombus;whiteSpace=wrap;html=1;" parent="WIyWlLk6GJQsqaUBKTNV-1" vertex="1">
          <mxGeometry x="379.86" y="1828" width="120" height="120" as="geometry" />
        </mxCell>
        <mxCell id="GbgRb__HCXadz126l9WK-141" style="edgeStyle=orthogonalEdgeStyle;rounded=0;orthogonalLoop=1;jettySize=auto;html=1;entryX=0.5;entryY=0;entryDx=0;entryDy=0;" parent="WIyWlLk6GJQsqaUBKTNV-1" source="GbgRb__HCXadz126l9WK-124" target="GbgRb__HCXadz126l9WK-133" edge="1">
          <mxGeometry relative="1" as="geometry" />
        </mxCell>
        <mxCell id="GbgRb__HCXadz126l9WK-124" value="提级督办" style="rounded=0;whiteSpace=wrap;html=1;" parent="WIyWlLk6GJQsqaUBKTNV-1" vertex="1">
          <mxGeometry x="629.86" y="1988" width="120" height="60" as="geometry" />
        </mxCell>
        <mxCell id="GbgRb__HCXadz126l9WK-132" value="结束" style="ellipse;whiteSpace=wrap;html=1;aspect=fixed;" parent="WIyWlLk6GJQsqaUBKTNV-1" vertex="1">
          <mxGeometry x="399.86" y="2340.5" width="80" height="80" as="geometry" />
        </mxCell>
        <mxCell id="GbgRb__HCXadz126l9WK-139" style="edgeStyle=orthogonalEdgeStyle;rounded=0;orthogonalLoop=1;jettySize=auto;html=1;entryX=0.5;entryY=0;entryDx=0;entryDy=0;exitX=1;exitY=0.5;exitDx=0;exitDy=0;" parent="WIyWlLk6GJQsqaUBKTNV-1" source="GbgRb__HCXadz126l9WK-133" target="GbgRb__HCXadz126l9WK-137" edge="1">
          <mxGeometry relative="1" as="geometry" />
        </mxCell>
        <mxCell id="GbgRb__HCXadz126l9WK-140" value="否" style="edgeLabel;html=1;align=center;verticalAlign=middle;resizable=0;points=[];" parent="GbgRb__HCXadz126l9WK-139" vertex="1" connectable="0">
          <mxGeometry x="-0.2467" y="-1" relative="1" as="geometry">
            <mxPoint as="offset" />
          </mxGeometry>
        </mxCell>
        <mxCell id="GbgRb__HCXadz126l9WK-205" style="edgeStyle=orthogonalEdgeStyle;rounded=0;orthogonalLoop=1;jettySize=auto;html=1;entryX=0.5;entryY=0;entryDx=0;entryDy=0;" parent="WIyWlLk6GJQsqaUBKTNV-1" source="GbgRb__HCXadz126l9WK-133" target="GbgRb__HCXadz126l9WK-132" edge="1">
          <mxGeometry relative="1" as="geometry" />
        </mxCell>
        <mxCell id="GbgRb__HCXadz126l9WK-133" value="复查（三定表）" style="rhombus;whiteSpace=wrap;html=1;" parent="WIyWlLk6GJQsqaUBKTNV-1" vertex="1">
          <mxGeometry x="379.86" y="2088" width="120" height="110" as="geometry" />
        </mxCell>
        <mxCell id="GbgRb__HCXadz126l9WK-138" style="edgeStyle=orthogonalEdgeStyle;rounded=0;orthogonalLoop=1;jettySize=auto;html=1;entryX=1;entryY=0.5;entryDx=0;entryDy=0;exitX=1;exitY=0.5;exitDx=0;exitDy=0;" parent="WIyWlLk6GJQsqaUBKTNV-1" source="GbgRb__HCXadz126l9WK-137" target="GbgRb__HCXadz126l9WK-124" edge="1">
          <mxGeometry relative="1" as="geometry" />
        </mxCell>
        <mxCell id="GbgRb__HCXadz126l9WK-137" value="加大处罚力度" style="rounded=0;whiteSpace=wrap;html=1;" parent="WIyWlLk6GJQsqaUBKTNV-1" vertex="1">
          <mxGeometry x="579.86" y="2248" width="120" height="60" as="geometry" />
        </mxCell>
        <mxCell id="GbgRb__HCXadz126l9WK-181" style="edgeStyle=orthogonalEdgeStyle;rounded=0;orthogonalLoop=1;jettySize=auto;html=1;entryX=0.529;entryY=0;entryDx=0;entryDy=0;entryPerimeter=0;" parent="WIyWlLk6GJQsqaUBKTNV-1" source="GbgRb__HCXadz126l9WK-151" target="GbgRb__HCXadz126l9WK-171" edge="1">
          <mxGeometry relative="1" as="geometry" />
        </mxCell>
        <mxCell id="GbgRb__HCXadz126l9WK-151" value="" style="rounded=1;whiteSpace=wrap;html=1;fillColor=#dae8fc;strokeColor=#6c8ebf;" parent="WIyWlLk6GJQsqaUBKTNV-1" vertex="1">
          <mxGeometry x="-260" y="425" width="340" height="235" as="geometry" />
        </mxCell>
        <mxCell id="GbgRb__HCXadz126l9WK-152" value="通风业务数据" style="rounded=1;whiteSpace=wrap;html=1;fontSize=12;glass=0;strokeWidth=1;shadow=0;" parent="WIyWlLk6GJQsqaUBKTNV-1" vertex="1">
          <mxGeometry x="-230" y="475" width="120" height="40" as="geometry" />
        </mxCell>
        <mxCell id="GbgRb__HCXadz126l9WK-153" value="压风业务数据" style="rounded=1;whiteSpace=wrap;html=1;fontSize=12;glass=0;strokeWidth=1;shadow=0;" parent="WIyWlLk6GJQsqaUBKTNV-1" vertex="1">
          <mxGeometry x="-90" y="475" width="120" height="40" as="geometry" />
        </mxCell>
        <mxCell id="GbgRb__HCXadz126l9WK-154" value="安全检测业务数据" style="rounded=1;whiteSpace=wrap;html=1;fontSize=12;glass=0;strokeWidth=1;shadow=0;" parent="WIyWlLk6GJQsqaUBKTNV-1" vertex="1">
          <mxGeometry x="-230" y="535" width="120" height="40" as="geometry" />
        </mxCell>
        <mxCell id="GbgRb__HCXadz126l9WK-155" value="人员定位数据" style="rounded=1;whiteSpace=wrap;html=1;fontSize=12;glass=0;strokeWidth=1;shadow=0;" parent="WIyWlLk6GJQsqaUBKTNV-1" vertex="1">
          <mxGeometry x="-80" y="540" width="120" height="40" as="geometry" />
        </mxCell>
        <mxCell id="GbgRb__HCXadz126l9WK-159" value="......" style="rounded=1;whiteSpace=wrap;html=1;fontSize=12;glass=0;strokeWidth=1;shadow=0;" parent="WIyWlLk6GJQsqaUBKTNV-1" vertex="1">
          <mxGeometry x="-230" y="590" width="120" height="40" as="geometry" />
        </mxCell>
        <mxCell id="GbgRb__HCXadz126l9WK-160" value="&lt;b&gt;大宽表&lt;/b&gt;" style="text;html=1;strokeColor=none;fillColor=none;align=center;verticalAlign=middle;whiteSpace=wrap;rounded=0;strokeWidth=1;" parent="WIyWlLk6GJQsqaUBKTNV-1" vertex="1">
          <mxGeometry x="-255" y="428" width="330" height="30" as="geometry" />
        </mxCell>
        <mxCell id="GbgRb__HCXadz126l9WK-161" value="" style="rounded=1;whiteSpace=wrap;html=1;fillColor=#dae8fc;strokeColor=#6c8ebf;" parent="WIyWlLk6GJQsqaUBKTNV-1" vertex="1">
          <mxGeometry x="160" y="425" width="320" height="235" as="geometry" />
        </mxCell>
        <mxCell id="GbgRb__HCXadz126l9WK-162" value="大模型API调用" style="rounded=1;whiteSpace=wrap;html=1;fontSize=12;glass=0;strokeWidth=1;shadow=0;" parent="WIyWlLk6GJQsqaUBKTNV-1" vertex="1">
          <mxGeometry x="190" y="490" width="120" height="40" as="geometry" />
        </mxCell>
        <mxCell id="GbgRb__HCXadz126l9WK-163" value="智能指令下发" style="rounded=1;whiteSpace=wrap;html=1;fontSize=12;glass=0;strokeWidth=1;shadow=0;" parent="WIyWlLk6GJQsqaUBKTNV-1" vertex="1">
          <mxGeometry x="330" y="490" width="120" height="40" as="geometry" />
        </mxCell>
        <mxCell id="GbgRb__HCXadz126l9WK-164" value="大模型系统联动" style="rounded=1;whiteSpace=wrap;html=1;fontSize=12;glass=0;strokeWidth=1;shadow=0;" parent="WIyWlLk6GJQsqaUBKTNV-1" vertex="1">
          <mxGeometry x="190" y="550" width="120" height="40" as="geometry" />
        </mxCell>
        <mxCell id="GbgRb__HCXadz126l9WK-170" value="&lt;b&gt;系统集成&lt;/b&gt;" style="text;html=1;strokeColor=none;fillColor=none;align=center;verticalAlign=middle;whiteSpace=wrap;rounded=0;strokeWidth=1;" parent="WIyWlLk6GJQsqaUBKTNV-1" vertex="1">
          <mxGeometry x="180" y="433" width="300" height="30" as="geometry" />
        </mxCell>
        <mxCell id="GbgRb__HCXadz126l9WK-171" value="" style="rounded=1;whiteSpace=wrap;html=1;fillColor=#dae8fc;strokeColor=#6c8ebf;" parent="WIyWlLk6GJQsqaUBKTNV-1" vertex="1">
          <mxGeometry x="-271" y="848.5" width="340" height="190" as="geometry" />
        </mxCell>
        <mxCell id="GbgRb__HCXadz126l9WK-172" value="系统数据问答" style="rounded=1;whiteSpace=wrap;html=1;fontSize=12;glass=0;strokeWidth=1;shadow=0;" parent="WIyWlLk6GJQsqaUBKTNV-1" vertex="1">
          <mxGeometry x="-241" y="898.5" width="120" height="40" as="geometry" />
        </mxCell>
        <mxCell id="GbgRb__HCXadz126l9WK-173" value="数据多业务分析报表" style="rounded=1;whiteSpace=wrap;html=1;fontSize=12;glass=0;strokeWidth=1;shadow=0;" parent="WIyWlLk6GJQsqaUBKTNV-1" vertex="1">
          <mxGeometry x="-101" y="898.5" width="120" height="40" as="geometry" />
        </mxCell>
        <mxCell id="GbgRb__HCXadz126l9WK-174" value="辅助报告编写" style="rounded=1;whiteSpace=wrap;html=1;fontSize=12;glass=0;strokeWidth=1;shadow=0;" parent="WIyWlLk6GJQsqaUBKTNV-1" vertex="1">
          <mxGeometry x="-241" y="958.5" width="120" height="40" as="geometry" />
        </mxCell>
        <mxCell id="GbgRb__HCXadz126l9WK-177" value="&lt;b&gt;数字调度员&lt;/b&gt;" style="text;html=1;strokeColor=none;fillColor=none;align=center;verticalAlign=middle;whiteSpace=wrap;rounded=0;strokeWidth=1;" parent="WIyWlLk6GJQsqaUBKTNV-1" vertex="1">
          <mxGeometry x="-261" y="853.5" width="300" height="30" as="geometry" />
        </mxCell>
        <mxCell id="GbgRb__HCXadz126l9WK-221" style="edgeStyle=orthogonalEdgeStyle;rounded=0;orthogonalLoop=1;jettySize=auto;html=1;entryX=0.003;entryY=0.887;entryDx=0;entryDy=0;entryPerimeter=0;" parent="WIyWlLk6GJQsqaUBKTNV-1" source="GbgRb__HCXadz126l9WK-188" target="GbgRb__HCXadz126l9WK-15" edge="1">
          <mxGeometry relative="1" as="geometry" />
        </mxCell>
        <mxCell id="GbgRb__HCXadz126l9WK-188" value="" style="rounded=1;whiteSpace=wrap;html=1;fillColor=#dae8fc;strokeColor=#6c8ebf;" parent="WIyWlLk6GJQsqaUBKTNV-1" vertex="1">
          <mxGeometry x="300" y="848.5" width="326" height="225" as="geometry" />
        </mxCell>
        <mxCell id="GbgRb__HCXadz126l9WK-189" value="人员安全监测" style="rounded=1;whiteSpace=wrap;html=1;fontSize=12;glass=0;strokeWidth=1;shadow=0;" parent="WIyWlLk6GJQsqaUBKTNV-1" vertex="1">
          <mxGeometry x="330" y="898.5" width="120" height="40" as="geometry" />
        </mxCell>
        <mxCell id="GbgRb__HCXadz126l9WK-190" value="人员监测" style="rounded=1;whiteSpace=wrap;html=1;fontSize=12;glass=0;strokeWidth=1;shadow=0;" parent="WIyWlLk6GJQsqaUBKTNV-1" vertex="1">
          <mxGeometry x="470" y="898.5" width="120" height="40" as="geometry" />
        </mxCell>
        <mxCell id="GbgRb__HCXadz126l9WK-191" value="工作面监测" style="rounded=1;whiteSpace=wrap;html=1;fontSize=12;glass=0;strokeWidth=1;shadow=0;" parent="WIyWlLk6GJQsqaUBKTNV-1" vertex="1">
          <mxGeometry x="330" y="958.5" width="120" height="40" as="geometry" />
        </mxCell>
        <mxCell id="GbgRb__HCXadz126l9WK-192" value="&lt;b&gt;反三违系统&lt;/b&gt;" style="text;html=1;strokeColor=none;fillColor=none;align=center;verticalAlign=middle;whiteSpace=wrap;rounded=0;strokeWidth=1;" parent="WIyWlLk6GJQsqaUBKTNV-1" vertex="1">
          <mxGeometry x="313" y="853.5" width="300" height="30" as="geometry" />
        </mxCell>
        <mxCell id="GbgRb__HCXadz126l9WK-194" value="设备检测" style="rounded=1;whiteSpace=wrap;html=1;fontSize=12;glass=0;strokeWidth=1;shadow=0;" parent="WIyWlLk6GJQsqaUBKTNV-1" vertex="1">
          <mxGeometry x="470" y="958.5" width="120" height="40" as="geometry" />
        </mxCell>
        <mxCell id="GbgRb__HCXadz126l9WK-195" value="运输监测" style="rounded=1;whiteSpace=wrap;html=1;fontSize=12;glass=0;strokeWidth=1;shadow=0;" parent="WIyWlLk6GJQsqaUBKTNV-1" vertex="1">
          <mxGeometry x="330" y="1014.5" width="120" height="40" as="geometry" />
        </mxCell>
        <mxCell id="GbgRb__HCXadz126l9WK-196" value="水仓监测" style="rounded=1;whiteSpace=wrap;html=1;fontSize=12;glass=0;strokeWidth=1;shadow=0;" parent="WIyWlLk6GJQsqaUBKTNV-1" vertex="1">
          <mxGeometry x="470" y="1013.5" width="120" height="40" as="geometry" />
        </mxCell>
        <mxCell id="GbgRb__HCXadz126l9WK-220" style="edgeStyle=orthogonalEdgeStyle;rounded=0;orthogonalLoop=1;jettySize=auto;html=1;exitX=0.5;exitY=1;exitDx=0;exitDy=0;" parent="WIyWlLk6GJQsqaUBKTNV-1" source="GbgRb__HCXadz126l9WK-192" target="GbgRb__HCXadz126l9WK-192" edge="1">
          <mxGeometry relative="1" as="geometry" />
        </mxCell>
      </root>
    </mxGraphModel>
  </diagram>
</mxfile>
